<svg width="64" height="64" viewBox="0 0 256 257" fill="none" xmlns="http://www.w3.org/2000/svg">
<path d="M35.8491 53.7104L37.0538 51.6753L34.1851 49.9773L32.9804 52.0127L35.8491 53.7104ZM26.9462 51.6753L28.1509 53.7104L31.0193 52.0127L29.8147 49.9773L26.9462 51.6753ZM32.9804 52.0127C32.5522 52.7362 31.4478 52.7362 31.0193 52.0127L28.1509 53.7104C29.87 56.6149 34.13 56.6149 35.8491 53.7104L32.9804 52.0127ZM28.6667 11.4444H35.3333V8.11111H28.6667V11.4444ZM52.5556 28.6667V30.8889H55.8889V28.6667H52.5556ZM11.4444 30.8889V28.6667H8.11111V30.8889H11.4444ZM8.11111 30.8889C8.11111 33.4547 8.1102 35.4624 8.22069 37.0818C8.33222 38.7162 8.56273 40.0764 9.08376 41.3342L12.1634 40.0587C11.8386 39.2747 11.6462 38.3196 11.5463 36.8549C11.4454 35.3753 11.4444 33.5002 11.4444 30.8889H8.11111ZM22.6722 45.8702C19.8824 45.822 18.4205 45.6447 17.2746 45.17L15.999 48.2496C17.7879 48.9904 19.8253 49.1549 22.6148 49.2029L22.6722 45.8702ZM9.08376 41.3342C10.3806 44.4651 12.8681 46.9527 15.999 48.2496L17.2746 45.17C14.9605 44.2113 13.1219 42.3729 12.1634 40.0587L9.08376 41.3342ZM52.5556 30.8889C52.5556 33.5002 52.5547 35.3753 52.4538 36.8549C52.3538 38.3196 52.1613 39.2747 51.8367 40.0587L54.9162 41.3342C55.4373 40.0764 55.6678 38.7162 55.7793 37.0818C55.8898 35.4624 55.8889 33.4547 55.8889 30.8889H52.5556ZM41.3851 49.2029C44.1747 49.1549 46.2122 48.9904 48.0009 48.2496L46.7253 45.17C45.5796 45.6447 44.1176 45.822 41.3278 45.8702L41.3851 49.2029ZM51.8367 40.0587C50.878 42.3729 49.0396 44.2113 46.7253 45.17L48.0009 48.2496C51.1318 46.9527 53.6193 44.4651 54.9162 41.3342L51.8367 40.0587ZM35.3333 11.4444C39.0027 11.4444 41.6378 11.4462 43.6931 11.6416C45.7238 11.8347 47.0158 12.205 48.0458 12.8362L49.7876 9.99404C48.1456 8.98793 46.2831 8.53953 44.0087 8.32327C41.7589 8.10936 38.9382 8.11111 35.3333 8.11111V11.4444ZM55.8889 28.6667C55.8889 25.0618 55.8907 22.2411 55.6767 19.9914C55.4604 17.7168 55.012 15.8543 54.006 14.2125L51.1638 15.9542C51.7951 16.9842 52.1653 18.2763 52.3584 20.3069C52.5538 22.3622 52.5556 24.9972 52.5556 28.6667H55.8889ZM48.0458 12.8362C49.3167 13.6149 50.3851 14.6834 51.1638 15.9542L54.006 14.2125C52.9524 12.4932 51.5069 11.0476 49.7876 9.99404L48.0458 12.8362ZM28.6667 8.11111C25.0618 8.11111 22.2411 8.10936 19.9914 8.32327C17.7168 8.53953 15.8543 8.98793 14.2125 9.99404L15.9542 12.8362C16.9842 12.205 18.2763 11.8347 20.3069 11.6416C22.3622 11.4462 24.9972 11.4444 28.6667 11.4444V8.11111ZM11.4444 28.6667C11.4444 24.9972 11.4462 22.3622 11.6416 20.3069C11.8347 18.2763 12.205 16.9842 12.8362 15.9542L9.99404 14.2125C8.98793 15.8543 8.53953 17.7168 8.32327 19.9914C8.10936 22.2411 8.11111 25.0618 8.11111 28.6667H11.4444ZM14.2125 9.99404C12.4932 11.0476 11.0476 12.4932 9.99404 14.2125L12.8362 15.9542C13.6149 14.6834 14.6834 13.6149 15.9542 12.8362L14.2125 9.99404ZM29.8147 49.9773C29.3636 49.2151 28.9676 48.5424 28.5824 48.014C28.1767 47.4576 27.7116 46.9564 27.0664 46.5811L25.3905 49.4627C25.4958 49.5238 25.6394 49.6356 25.8886 49.9773C26.1583 50.3476 26.463 50.8589 26.9462 51.6753L29.8147 49.9773ZM22.6148 49.2029C23.5906 49.2198 24.2086 49.2322 24.6797 49.2842C25.12 49.3331 25.2906 49.4044 25.3905 49.4627L27.0664 46.5811C26.4158 46.2027 25.7388 46.0478 25.0466 45.9711C24.3853 45.898 23.5861 45.886 22.6722 45.8702L22.6148 49.2029ZM37.0538 51.6753C37.5369 50.8589 37.8416 50.3476 38.1113 49.9773C38.3604 49.6356 38.504 49.5238 38.6093 49.4627L36.9336 46.5811C36.2884 46.9564 35.8231 47.4576 35.4176 48.014C35.0324 48.5424 34.6364 49.2151 34.1851 49.9773L37.0538 51.6753ZM41.3278 45.8702C40.4138 45.886 39.6147 45.898 38.9533 45.9711C38.2611 46.0478 37.5842 46.2027 36.9336 46.5811L38.6093 49.4627C38.7093 49.4044 38.88 49.3331 39.3202 49.2842C39.7913 49.2322 40.4093 49.2198 41.3851 49.2029L41.3278 45.8702Z" fill="#642CB4"/>
<path opacity="0.5" d="M39.7778 22.7335L40.1591 23.1148C43.122 26.0777 44.6036 27.5593 44.6036 29.4002C44.6036 31.2411 43.122 32.7227 40.1591 35.6856L39.7778 36.0669" stroke="#642CB4" stroke-width="3.33333" stroke-linecap="round"/>
<path opacity="0.5" d="M34.8753 18.6667L31.9996 29.3991L29.124 40.1318" stroke="#642CB4" stroke-width="3.33333" stroke-linecap="round"/>
<path opacity="0.5" d="M24.2221 22.7335L23.8408 23.1148C20.8779 26.0777 19.3964 27.5593 19.3964 29.4002C19.3964 31.2411 20.8779 32.7227 23.8408 35.6856L24.2221 36.0669" stroke="#642CB4" stroke-width="3.33333" stroke-linecap="round"/>
</svg>
